<?xml version="1.0" standalone="no"?><!DOCTYPE svg PUBLIC "-//W3C//DTD SVG 1.1//EN" "http://www.w3.org/Graphics/SVG/1.1/DTD/svg11.dtd"><svg t="1585821136670" class="icon" viewBox="0 0 1024 1024" version="1.1" xmlns="http://www.w3.org/2000/svg" p-id="2339" width="128" height="128" xmlns:xlink="http://www.w3.org/1999/xlink"><defs><style type="text/css"></style></defs><path d="M364.7 918.7c-3.1 0-6.3-0.7-9.2-2.3-9.8-5.1-13.6-17.2-8.5-27l24.9-47.8c3.7-8.8 1.7-19.1-5.1-25.9l-76.9-76.9c-6.8-6.8-17.1-8.8-25.9-5.1l-45.9 24c-9.8 5.1-21.9 1.3-27-8.4s-1.3-21.9 8.4-27l46.6-24.4 1.2-0.6c23.9-10.6 52.4-5.3 70.9 13.2l76.9 76.9c18.5 18.5 23.8 47 13.2 70.9-0.2 0.4-0.3 0.7-0.5 1.1l-25.2 48.5c-3.7 6.9-10.7 10.8-17.9 10.8z" fill="#ffffff" p-id="2340"></path><path d="M406.3 937.3c-28.6 0-55.5-11.1-75.7-31.4L200.2 775.6c-20.2-20.2-31.4-47.1-31.4-75.7s11.1-55.5 31.4-75.7l73.1-73.1c7.8-7.8 20.5-7.8 28.3 0l231.2 231.2c5.8 5.8 7.5 14.4 4.3 21.9l-24.6 58c-6.6 15.5-15.9 29.4-27.8 41.3L482 906c-20.2 20.2-47.1 31.3-75.7 31.3zM287.4 593.4l-59 59c-12.7 12.7-19.7 29.5-19.7 47.5 0 17.9 7 34.8 19.7 47.5l130.4 130.4c12.7 12.7 29.5 19.7 47.5 19.7 17.9 0 34.8-7 47.5-19.7l2.6-2.6c8.2-8.2 14.7-17.9 19.3-28.6L495 801 287.4 593.4z" fill="#ffffff" p-id="2341"></path><path d="M518.6 816.3c-5.3 0-10.4-2.1-14.1-5.9L273.3 579.3c-3.8-3.8-5.9-8.8-5.9-14.1s2.1-10.4 5.9-14.1l448.5-448.5c3.8-3.8 8.8-5.9 14.1-5.9s10.4 2.1 14.1 5.9l71.9 71.9c11.2 11.2 13.4 23 13.2 31-0.3 13.9-7.4 27.5-21.3 40.4l-38.5 35.7c-1.8 1.7-3 4-3.4 6.4l-14.5 99.2c-2.1 14.4-10 27.5-21.8 36L683.5 461c-2.5 1.8-4.1 4.6-4.4 7.7l-8 79.9c-1.7 16.7-10.7 31.4-24.9 40.4l-45 28.6c-2.4 1.5-4.1 3.9-4.8 6.7l-19.3 82.2c-0.7 2.9-1.6 5.8-2.8 8.6l-37.4 89c-2.6 6.1-8.1 10.6-14.6 11.9-1.1 0.2-2.4 0.3-3.7 0.3zM315.7 565.1l196 196 25.9-61.6c0.3-0.7 0.6-1.5 0.7-2.2l19.3-82.2c3.1-13 11-24.2 22.3-31.3l45-28.6c3.7-2.3 6.1-6.2 6.5-10.6l8-79.9c1.4-14.4 9-27.6 20.8-36.2l52.1-37.8c3.1-2.2 5.1-5.7 5.7-9.4l14.5-99.2c1.7-11.4 7.3-22 15.7-29.9l38.5-35.7c7.2-6.7 8.6-11 8.5-11.8 0 0-0.3-0.7-1.5-1.9L735.9 145 315.7 565.1z" fill="#ffffff" p-id="2342"></path><path d="M384.7 908.7c-3.1 0-6.3-0.7-9.2-2.3-9.8-5.1-13.6-17.2-8.5-27l24.9-47.8c3.7-8.8 1.7-19.1-5.1-25.9l-76.9-76.9c-6.8-6.8-17.1-8.8-25.9-5.1l-45.9 24c-9.8 5.1-21.9 1.3-27-8.4-5.1-9.8-1.3-21.9 8.4-27l46.6-24.4 1.2-0.6c23.9-10.6 52.4-5.3 70.9 13.2l76.9 76.9c18.5 18.5 23.8 47 13.2 70.9-0.2 0.4-0.3 0.7-0.5 1.1l-25.2 48.5c-3.7 6.9-10.7 10.8-17.9 10.8z" fill="#ffffff" p-id="2343"></path><path d="M426.3 927.3c-28.6 0-55.5-11.1-75.7-31.4L220.2 765.6c-20.2-20.2-31.4-47.1-31.4-75.7s11.1-55.5 31.4-75.7l73.1-73.1c7.8-7.8 20.5-7.8 28.3 0l231.2 231.2c5.8 5.8 7.5 14.4 4.3 21.9l-24.6 58c-6.6 15.5-15.9 29.4-27.8 41.3L502 896c-20.2 20.2-47.1 31.3-75.7 31.3zM307.4 583.4l-59 59c-12.7 12.7-19.7 29.5-19.7 47.5 0 17.9 7 34.8 19.7 47.5l130.4 130.4c12.7 12.7 29.5 19.7 47.5 19.7 17.9 0 34.8-7 47.5-19.7l2.6-2.6c8.2-8.2 14.7-17.9 19.3-28.6L515 791 307.4 583.4z" fill="#ffffff" p-id="2344"></path><path d="M538.6 806.3c-5.3 0-10.4-2.1-14.1-5.9L293.3 569.3c-3.8-3.8-5.9-8.8-5.9-14.1s2.1-10.4 5.9-14.1L741.8 92.5c3.8-3.8 8.8-5.9 14.1-5.9s10.4 2.1 14.1 5.9l71.9 71.9c11.2 11.2 13.4 23 13.2 31-0.3 13.9-7.4 27.5-21.3 40.4l-38.5 35.7c-1.8 1.7-3 4-3.4 6.4l-14.5 99.2c-2.1 14.4-10 27.5-21.8 36l-52.1 37.8c-2.5 1.8-4.1 4.6-4.4 7.7l-8 79.9c-1.7 16.7-10.7 31.4-24.9 40.4l-45 28.6c-2.4 1.5-4.1 3.9-4.8 6.7l-19.3 82.2c-0.7 2.9-1.6 5.8-2.8 8.6l-37.4 89c-2.6 6.1-8.1 10.6-14.6 11.9-1.1 0.3-2.4 0.4-3.7 0.4zM335.7 555.1l196 196 25.9-61.6c0.3-0.7 0.6-1.5 0.7-2.2l19.3-82.2c3.1-13 11-24.2 22.3-31.3l45-28.6c3.7-2.3 6.1-6.2 6.5-10.6l8-79.9c1.4-14.4 9-27.6 20.8-36.2l52.1-37.8c3.1-2.2 5.1-5.7 5.7-9.4l14.5-99.2c1.7-11.4 7.3-22 15.7-29.9l38.5-35.7c7.2-6.7 8.6-11 8.5-11.8 0 0-0.3-0.7-1.5-1.9L755.9 135 335.7 555.1z" fill="#ffffff" p-id="2345"></path></svg>